<svg id="Layer_1" data-name="Layer 1" xmlns="http://www.w3.org/2000/svg" viewBox="0 0 1920 1080"><defs><style>.cls-1{fill:#231f20}.cls-1,.cls-2{stroke-width:0px}.cls-2{fill:#f79420}</style></defs><path class="cls-2" d="M580.3,467.38h34.57l-22.77-22.6-72.71-72.16c-15.06-14.92-39.32-14.92-54.37,0l-93.67,92.95-20.95-20.79-72.71-72.16c-15.06-14.92-39.32-14.92-54.37,0l-55.39,54.95-17.34,17.21-22.75,22.6-33.15,32.88c-26.23,26.03-26.23,68.43,0,94.46l2.62,2.59c27.5,27.3,71.89,27.3,99.39,0l53.82-53.4,17.34-17.21,52-51.6c4.99-4.97,11.73-7.74,18.76-7.74h30.92l-33.14,32.88c-26.23,26.03-26.23,68.43,0,94.46l2.62,2.59c27.5,27.3,71.89,27.3,99.39,0l123.16-122.2c4.99-4.97,11.73-7.74,18.76-7.74Z"/><path class="cls-2" d="M658.9,511.07h0c-14.89-14.77-38.9-14.77-53.78,0l-74.02,73.46,13.37,13.27c27.71,27.5,72.42,27.5,100.14,0l14.3-14.19c20.14-19.99,20.14-52.55,0-72.54Z"/><g><path class="cls-1" d="M796.13,498.09c0-15.26-3-38.24-4.74-53.34h.95l12.31,36.67,20.78,56.07h20.25l20.75-56.07,12.7-36.67h.95c-1.74,15.1-4.73,38.09-4.73,53.34v52.49h33.67v-154.13h-40.09l-23.51,66.48c-3,8.89-5.52,18.62-8.52,27.93h-.95c-3-9.31-5.58-19.04-8.57-27.93l-24.35-66.48h-40.09v154.13h33.2v-52.49Z"/><path class="cls-1" d="M994.16,538.8l2.63,11.78h30.15v-66.65c0-37.04-17.31-53.97-47.61-53.97-18.46,0-35.35,6.1-50.87,15.52l13.05,24.2c11.73-6.52,21.25-10.36,30.61-10.36,11.88,0,17.04,5.62,17.83,15.25-46.08,4.84-65.49,18.36-65.49,43.06,0,19.65,13.47,35.8,35.19,35.8,13.04,0,23.88-6,33.61-14.62h.89ZM989.95,515.6c-5.47,5.63-10.2,9.31-17.62,9.31-7.83,0-12.52-3.47-12.52-10.25,0-8.05,7.36-14.78,30.13-17.93v18.88Z"/><path class="cls-1" d="M1114.15,482.41v68.17h36.99v-72.91c0-29.35-10.89-47.71-36.61-47.71-16.05,0-27.88,8.15-37.61,17.46h-.9l-2.63-14.62h-30.15v117.78h36.99v-78.64c7.1-6.73,12.04-10.52,20.35-10.52,9.31,0,13.57,4.73,13.57,20.98Z"/><path class="cls-1" d="M1232.31,538.8l2.63,11.78h30.15v-66.65c0-37.04-17.31-53.97-47.61-53.97-18.46,0-35.35,6.1-50.87,15.52l13.05,24.2c11.73-6.52,21.25-10.36,30.61-10.36,11.89,0,17.04,5.62,17.83,15.25-46.08,4.84-65.49,18.36-65.49,43.06,0,19.65,13.47,35.8,35.19,35.8,13.04,0,23.88-6,33.61-14.62h.89ZM1228.1,515.6c-5.47,5.63-10.2,9.31-17.61,9.31-7.84,0-12.52-3.47-12.52-10.25,0-8.05,7.36-14.78,30.13-17.93v18.88Z"/><path class="cls-1" d="M1274.4,570.46c0,21.04,22.15,29.62,49.34,29.62,40.98,0,66.81-17.67,66.81-42.51,0-21.31-16.41-30.2-45.5-30.2h-18.57c-12.47,0-17.2-2.47-17.2-8.05,0-3.84.95-5.68,3.63-8.05,5.21,1.42,9.84,2.05,13.94,2.05,25.99,0,46.82-12.05,46.82-39.4,0-5.63-1.47-11.04-3.21-14.3h18.2v-26.83h-43.34c-5.42-1.84-11.89-2.84-18.47-2.84-25.57,0-49.34,14.1-49.34,42.72,0,13.73,7.52,24.67,15.89,30.4v.95c-7.68,5.42-13.15,13.78-13.15,22.09,0,9.78,4.68,15.94,10.78,20.1v.95c-10.84,5.89-16.62,13.57-16.62,23.3ZM1326.84,454.69c8.63,0,14.83,6.07,14.83,17.99s-6.26,18.46-14.83,18.46-14.83-6.15-14.83-18.46,6.21-17.99,14.83-17.99ZM1310.28,554.1c3.63,1,8.1,1.47,16.68,1.47h11.1c11.04,0,17.15,1.42,17.15,8.36,0,7.57-10.73,13.09-25.51,13.09s-24.98-4.1-24.98-12.52c0-3.89,1.79-7.05,5.57-10.41Z"/><path class="cls-1" d="M1451.21,525.32c-14.78,0-25.98-6.68-29.35-22.67h69.22c.68-2.84,1.53-9.42,1.53-15.99,0-31.93-16.57-56.71-50.61-56.71-28.46,0-55.92,23.57-55.92,61.76s26.15,61.7,60.02,61.7c13.68,0,29.88-4.84,42.19-13.42l-12.15-22.15c-8.52,4.89-16.36,7.47-24.93,7.47ZM1442.84,458.05c13.31,0,18.25,8.84,18.25,20.3h-39.65c2.37-13.73,11.15-20.3,21.4-20.3Z"/><path class="cls-1" d="M1541.14,471.94c6.94-7.15,13.3-10.52,18.72-10.52,9.2,0,13.51,4.73,13.51,20.98v68.17h36.99v-78.64c6.94-7.15,13.25-10.52,18.72-10.52,9.2,0,13.51,4.73,13.51,20.98v68.17h36.99v-72.91c0-29.35-11.36-47.71-36.98-47.71-15.73,0-26.62,9-36.72,19.46-6.1-12.52-16.15-19.46-32.51-19.46s-25.99,8.15-35.56,17.67h-.89l-2.63-14.83h-30.15v117.78h36.99v-78.64Z"/><path class="cls-1" d="M803.26,687.95c-.14,0-.95.69-2.41,2.08-1.75,1.67-3.47,2.95-5.17,3.85-2.57,1.38-5.24,2.08-8,2.08-5.56,0-9.9-2.19-13-6.57-2.74-3.9-4.11-8.74-4.11-14.53s1.38-10.59,4.15-14.4c3.11-4.26,7.45-6.39,13.04-6.39,2.94,0,5.62.69,8.05,2.07,1.47.85,3.03,2.12,4.7,3.81,1.35,1.38,2.22,2.07,2.58,2.07.31,0,1.21-1.18,2.71-3.54,1.5-2.36,2.24-3.77,2.24-4.26,0-.39-.23-.89-.68-1.48-4.69-5.79-11.31-8.68-19.86-8.68s-15.23,3.14-20.37,9.4c-4.83,5.82-7.24,13.04-7.24,21.68s2.37,15.84,7.12,21.6c5.08,6.18,11.86,9.27,20.33,9.27s14.95-3.19,20.46-9.57c.54-.62.81-1.1.81-1.44,0-.23-.85-1.46-2.54-3.71-1.69-2.24-2.63-3.37-2.8-3.37Z"/><path class="cls-1" d="M834.13,664.15c-1.72,0-3.13.17-4.23.51-1.33.37-2.63.93-3.9,1.69-1.16.73-2.31,1.47-3.47,2.2-.09.06-.16.08-.21.08-.37,0-.62-.83-.76-2.5-.14-1.67-.44-2.5-.89-2.5.23,0-1.19.28-4.24.85-1.89.23-3.36.4-4.4.51-.37.14-.55.38-.55.72,0,.11.03.28.08.51,1.3,4.23,1.95,9.84,1.95,16.81,0,2.31-.04,5.77-.11,10.37-.07,4.6-.11,8.05-.11,10.33,0,.71.32,1.06.97,1.06.87,0,2.2.01,3.98.04,1.78.03,3.11.04,3.98.04.65,0,.97-.38.97-1.14,0-1.58-.06-3.98-.19-7.2-.13-3.22-.19-5.62-.19-7.2v-4.66c0-3.84.3-6.37.89-7.58.99-2.01,3.26-3.01,6.82-3.01.62,0,1.53.06,2.73.19,1.2.13,2.1.19,2.69.19.48,0,.76-.32.85-.97.42-2.54.64-5.36.64-8.47,0-.59-1.1-.89-3.3-.89Z"/><path class="cls-1" d="M877.97,682.06c0-5.42-1.74-10.02-5.21-13.81-3.56-3.9-7.99-5.84-13.3-5.84-5.7,0-10.52,2.25-14.44,6.73-3.73,4.32-5.59,9.39-5.59,15.2,0,6.52,1.95,11.74,5.84,15.65,3.9,3.91,9.12,5.87,15.67,5.87s11.82-2.2,15.97-6.61c.45-.48.68-.81.68-.97,0-.14-.49-1.17-1.48-3.07s-1.52-2.89-1.59-2.94-.22-.08-.44-.08c-.45.37-.9.73-1.36,1.1-3.73,2.88-7.82,4.32-12.28,4.32-2.6,0-5.03-.83-7.28-2.5-2.37-1.75-3.74-3.87-4.11-6.35,16.26-1.21,25-2.05,26.22-2.5,1.81-.71,2.71-2.1,2.71-4.19ZM865.43,680.33c-5.82.85-10.81,1.27-14.99,1.27-1.02,0-1.52-.3-1.52-.89,0-2.6,1.01-4.94,3.03-7.03,2.02-2.09,4.33-3.14,6.92-3.14,2.31,0,4.4.91,6.25,2.71,1.85,1.81,2.77,3.88,2.77,6.23,0,.34-.82.62-2.46.85Z"/><path class="cls-1" d="M921.59,665.12c-2.09-.42-3.51-.63-4.28-.63-.48,0-.88.89-1.19,2.67-.31,1.78-.55,2.67-.72,2.67-.08,0-.17-.04-.25-.13-1.02-1.07-1.76-1.89-2.24-2.46-3.22-2.99-6.99-4.49-11.31-4.49-6.13,0-11.07,2.13-14.82,6.39-3.58,4.09-5.38,9.27-5.38,15.54,0,5.56,1.78,10.43,5.34,14.61,3.75,4.38,8.37,6.56,13.85,6.56,2.23,0,4.46-.57,6.69-1.69,1.44-.71,2.99-1.74,4.66-3.09,1.36-1.1,2.12-1.65,2.29-1.65.25,0,.52.99.8,2.96.28,1.98.69,2.96,1.23,2.96.76,0,1.93-.09,3.49-.28,1.57-.18,2.74-.28,3.51-.28s1.15-.41,1.12-1.23l-.04-.59c-.71-12.39-1.06-18.73-1.06-19.02,0-4.69.55-10.26,1.65-16.73.08-.39.13-.65.13-.76,0-.39-1.16-.85-3.47-1.36ZM911.13,692.99c-2.23,2.68-5,4.02-8.3,4.02s-6.21-1.31-8.47-3.94c-2.17-2.51-3.26-5.48-3.26-8.89s1.09-6.44,3.26-8.98c2.26-2.65,5.08-3.98,8.47-3.98s6.17,1.34,8.34,4.02c2.06,2.49,3.09,5.46,3.09,8.94s-1.04,6.3-3.13,8.81Z"/><path class="cls-1" d="M955.05,696.25c-.82,0-2.08.19-3.77.57-1.69.38-2.98.57-3.85.57-2.12,0-3.51-.73-4.19-2.2-.45-.96-.68-2.65-.68-5.08v-6.31c0-3.61.07-6.42.21-8.43.11-1.61.28-2.41.51-2.41,1.13,0,2.84.08,5.12.23,2.29.16,3.99.23,5.12.23.79,0,1.19-.27,1.19-.8,0-.42-.02-1.07-.04-1.95-.03-.87-.04-1.52-.04-1.95,0-.37.05-.92.15-1.67.1-.75.15-1.29.15-1.63s-.24-.51-.72-.51h-10.16c-.76,0-1.14-.41-1.14-1.23,0-1.24.09-3.11.28-5.59s.28-4.35.28-5.59c0-.53-.32-.85-.97-.93-5.05-.87-7.71-1.31-7.96-1.31-.79,0-1.19,1.03-1.19,3.09,0,1.16.04,2.9.11,5.21s.11,4.04.11,5.17-.65,1.68-1.95,1.74c-.68.03-1.37.04-2.08.04-.82.14-1.27.55-1.36,1.23-.11.91-.17,1.76-.17,2.58,0,2.17.3,3.33.89,3.47,1.02.03,2.05.04,3.09.04,1.16.09,1.74.71,1.74,1.86,0,2.4-.06,6.01-.17,10.82-.11,4.81-.17,8.42-.17,10.82,0,5.99,3.3,8.98,9.91,8.98,4.97,0,8.61-.55,10.93-1.65.42-.2.69-.39.81-.59.06-.11.1-.42.13-.93.03-.4.11-1.26.25-2.58.11-1.07.17-1.92.17-2.54,0-.51-.17-.76-.51-.76Z"/><path class="cls-1" d="M971.61,664.83c-.54,0-1.34.07-2.4.21-1.06.14-1.86.21-2.39.21s-1.33-.07-2.4-.21c-1.06-.14-1.84-.21-2.35-.21-.59,0-.89.24-.89.72,0,2.2.16,5.5.49,9.91s.49,7.71.49,9.91c0,1.98-.05,4.92-.15,8.83-.1,3.91-.15,6.84-.15,8.79,0,1.16.3,1.74.89,1.74h8.26c.51,0,.76-.3.76-.89,0-2.03-.04-5.1-.13-9.21-.08-4.11-.13-7.19-.13-9.26,0-2.2.13-5.5.4-9.89s.4-7.67.4-9.85c0-.54-.24-.81-.72-.81Z"/><path class="cls-1" d="M966.82,648.86c-1.58,0-2.94.48-4.07,1.44-1.21,1.02-1.82,2.3-1.82,3.85,0,3.47,1.96,5.21,5.89,5.21s5.8-1.73,5.8-5.21c0-1.55-.57-2.82-1.72-3.81s-2.5-1.48-4.08-1.48Z"/><path class="cls-1" d="M1017.85,687.02c0-.9.02-2.26.06-4.06.04-1.81.06-3.15.06-4.02,0-5.05-.72-8.71-2.16-10.97-1.95-3.08-5.57-4.61-10.88-4.61-2.77,0-5.63.9-8.6,2.71-2.4,1.72-4.33,3.16-5.8,4.32-.51-1.78-.83-3.54-.97-5.29-.06-.45-.17-.68-.34-.68-.14,0-1.73.25-4.77.74-3.03.49-4.65.76-4.85.78-.37.11-.55.31-.55.59,0,.11.04.29.13.55,1.27,5.08,1.91,10.63,1.91,16.64,0,2.26-.03,5.62-.11,10.08s-.11,7.81-.11,10.04c0,.65.3.97.89.97.91,0,2.26.01,4.07.04,1.81.03,3.16.04,4.07.04.53,0,.81-.35.81-1.06v-25.41c0-1.3,1.33-2.78,3.98-4.45,2.51-1.58,4.47-2.37,5.89-2.37,3.05,0,5.14.79,6.27,2.37.93,1.33,1.4,3.6,1.4,6.82,0,1.13.01,2.82.04,5.06.03,2.25.04,3.93.04,5.06,0,1.41-.04,3.53-.13,6.35-.08,2.82-.13,4.93-.13,6.31,0,.82.25,1.23.76,1.23.93,0,2.32.01,4.17.04,1.85.03,3.24.04,4.17.04.57,0,.85-.31.85-.93,0-1.89-.03-4.71-.09-8.47-.06-3.75-.08-6.58-.08-8.47Z"/><path class="cls-1" d="M1062.79,664.23c-.25-.11-1.76-.43-4.53-.95-2.77-.52-4.29-.78-4.57-.78-.34,0-.51.85-.51,2.54,0,.4.03,1,.08,1.8.06.81.08,1.39.08,1.76,0,.51-.11.76-.34.76-.2,0-.52-.3-.97-.89-2.74-3.58-6.44-5.38-11.1-5.38-5.28,0-9.57,2.01-12.88,6.01-3.11,3.76-4.66,8.32-4.66,13.68s1.61,9.73,4.83,13.34c3.36,3.75,7.65,5.63,12.88,5.63,4.83,0,8.81-1.91,11.94-5.72.11,2.06.17,3.39.17,3.98,0,2.68-1.06,4.73-3.18,6.14-1.83,1.24-4.15,1.86-6.94,1.86-4.26,0-8.51-1.21-12.75-3.64-.23-.14-.41-.21-.55-.21-.31,0-.51.24-.59.72-.84,4.49-1.27,6.58-1.27,6.27,0,.28.31.62.93,1.02,3.95,2.43,9.13,3.64,15.54,3.64s11.46-1.69,14.48-5.08c2.88-3.19,4.32-8.14,4.32-14.87,0-3.39.03-8.48.08-15.27.06-6.79.08-11.88.08-15.27,0-.59-.2-.96-.59-1.1ZM1050.55,690.74c-1.92,2.43-4.38,3.64-7.37,3.64s-5.48-1.21-7.37-3.64c-1.75-2.23-2.63-4.88-2.63-7.96s.86-5.8,2.58-8c1.89-2.43,4.36-3.64,7.41-3.64s5.56,1.2,7.45,3.6c1.72,2.2,2.59,4.88,2.59,8.04s-.89,5.73-2.67,7.96Z"/><path class="cls-1" d="M1128.09,664.78c-.9,0-2.26.05-4.07.15-1.81.1-3.17.15-4.11.15-.42,0-.64.21-.64.63,0,.93.09,2.33.28,4.19.18,1.86.27,3.26.27,4.19,0,3.45-.11,5.87-.34,7.28-.17,1.05-1.47,3.57-3.9,7.58-2.46,4.09-4,6.14-4.62,6.14s-2.34-2.09-5.06-6.27c-2.72-4.18-4.16-6.8-4.3-7.88-.28-2.14-.42-4.52-.42-7.11,0-.9.06-2.24.17-4s.17-3.1.17-4c0-.57-.26-.85-.76-.85-.93,0-2.32-.04-4.17-.13-1.85-.08-3.24-.13-4.17-.13-.62,0-.93.31-.93.93,0,1.16-.03,2.9-.08,5.21s-.08,4.05-.08,5.21c0,3.73.34,6.48,1.02,8.26.51,1.3,2.89,4.93,7.16,10.88,4.37,6.13,6.96,9.32,7.75,9.57.59.17,1.84.25,3.73.25s3.16-.08,3.56-.25c.82-.34,3.36-3.66,7.62-9.95,4.15-6.15,6.44-9.87,6.86-11.14.26-.65.38-2.96.38-6.95,0-7.99-.44-11.98-1.31-11.98Z"/><path class="cls-1" d="M1174.42,665.12c-2.09-.42-3.52-.63-4.28-.63-.48,0-.87.89-1.19,2.67-.31,1.78-.55,2.67-.72,2.67-.08,0-.17-.04-.25-.13-1.02-1.07-1.76-1.89-2.25-2.46-3.22-2.99-6.99-4.49-11.31-4.49-6.12,0-11.07,2.13-14.82,6.39-3.59,4.09-5.38,9.27-5.38,15.54,0,5.56,1.78,10.43,5.34,14.61,3.75,4.38,8.37,6.56,13.85,6.56,2.23,0,4.46-.57,6.69-1.69,1.44-.71,2.99-1.74,4.66-3.09,1.36-1.1,2.12-1.65,2.29-1.65.26,0,.52.99.81,2.96.28,1.98.69,2.96,1.23,2.96.76,0,1.93-.09,3.49-.28,1.57-.18,2.74-.28,3.51-.28s1.15-.41,1.12-1.23l-.04-.59c-.71-12.39-1.06-18.73-1.06-19.02,0-4.69.55-10.26,1.65-16.73.09-.39.13-.65.13-.76,0-.39-1.16-.85-3.47-1.36ZM1163.96,692.99c-2.23,2.68-5,4.02-8.3,4.02s-6.21-1.31-8.47-3.94c-2.17-2.51-3.26-5.48-3.26-8.89s1.09-6.44,3.26-8.98c2.26-2.65,5.08-3.98,8.47-3.98s6.17,1.34,8.34,4.02c2.06,2.49,3.09,5.46,3.09,8.94s-1.04,6.3-3.13,8.81Z"/><path class="cls-1" d="M1194.79,645.39c-.51,0-1.28.04-2.33.13-1.04.08-1.83.13-2.37.13s-1.27-.04-2.29-.13c-1.02-.08-1.78-.13-2.29-.13-.59,0-.89.28-.89.85,0,3.02.15,7.59.45,13.7.3,6.11.45,10.7.45,13.74,0,3.36-.03,8.39-.09,15.1-.06,6.7-.08,11.72-.08,15.05,0,.65.25.97.76.97h8.09c.45,0,.68-.32.68-.97,0-3.33-.06-8.35-.17-15.05-.11-6.71-.17-11.74-.17-15.1,0-7.54.31-16.56.93-27.06l.04-.55c.03-.45-.21-.68-.72-.68Z"/><path class="cls-1" d="M1243.12,666.39c0-.99-.41-1.48-1.23-1.48h-6.99c-1.16,0-1.74.69-1.74,2.08,0,12.79-.07,20.24-.21,22.36-.09,1.69-1.41,3.46-3.98,5.29-2.43,1.75-4.53,2.63-6.31,2.63-4.18,0-6.88-1.52-8.09-4.57-.71-1.7-1.06-5.01-1.06-9.95,0-2.03.04-3.9.13-5.59.03-1.13.24-3.06.63-5.8.37-2.57.55-4.4.55-5.5,0-.62-.28-.93-.85-.93-.82,0-2.05-.01-3.69-.04s-2.86-.04-3.68-.04c-.68,0-1.14.55-1.4,1.65-1.05,4.55-1.57,10.09-1.57,16.64,0,7.26.62,12.28,1.86,15.08,2.01,4.52,6.13,6.78,12.37,6.78,4.6,0,9.26-2.05,13.98-6.14.28-.25.49-.38.63-.38.26,0,.42,1.06.49,3.18s.28,3.18.61,3.18c5.51,0,8.37-.03,8.6-.08.53-.17.8-.54.8-1.1,0-2.06-.06-5.15-.19-9.25-.13-4.11-.19-7.19-.19-9.25s.09-5.22.26-9.38c.17-4.16.25-7.28.25-9.34Z"/><path class="cls-1" d="M1287.62,682.06c0-5.42-1.74-10.02-5.21-13.81-3.56-3.9-7.99-5.84-13.3-5.84-5.7,0-10.52,2.25-14.44,6.73-3.73,4.32-5.59,9.39-5.59,15.2,0,6.52,1.95,11.74,5.84,15.65,3.9,3.91,9.12,5.87,15.67,5.87s11.82-2.2,15.97-6.61c.45-.48.68-.81.68-.97,0-.14-.49-1.17-1.48-3.07-.99-1.91-1.52-2.89-1.59-2.94s-.22-.08-.44-.08c-.45.37-.91.73-1.36,1.1-3.73,2.88-7.82,4.32-12.28,4.32-2.6,0-5.02-.83-7.28-2.5-2.37-1.75-3.74-3.87-4.11-6.35,16.26-1.21,25-2.05,26.22-2.5,1.81-.71,2.71-2.1,2.71-4.19ZM1275.09,680.33c-5.82.85-10.81,1.27-14.99,1.27-1.02,0-1.52-.3-1.52-.89,0-2.6,1.01-4.94,3.03-7.03,2.02-2.09,4.32-3.14,6.92-3.14,2.31,0,4.4.91,6.25,2.71,1.85,1.81,2.77,3.88,2.77,6.23,0,.34-.82.62-2.46.85Z"/><path class="cls-1" d="M1337.98,662.67c-5.11,0-9.22,1.93-12.32,5.8-.23.31-.44.47-.64.47-.4,0-.59-.53-.59-1.61,0-1.47.06-3.68.19-6.63.13-2.95.19-5.16.19-6.63,0-.99.07-2.47.21-4.45.14-1.97.21-3.44.21-4.4,0-.65-.23-.97-.68-.97-.62,0-1.44.08-2.46.25-1.21.17-2.02.27-2.41.3-2.01.08-3.52.14-4.53.17-.7.08-1.06.47-1.09,1.15.04.27.17,3.1.41,8.55.45,10.11.68,17.77.68,23,0,12.76-.23,21.4-.68,25.92-.06.54-.08.79-.08.76,0,.37.17.55.51.55h8.93c.37,0,.6-.8.7-2.41.1-1.61.3-2.46.61-2.54,1.13.93,2.26,1.88,3.39,2.84,2.8,1.86,6.03,2.8,9.7,2.8,5.5,0,10.11-2.2,13.81-6.61,3.47-4.15,5.21-9.02,5.21-14.61,0-5.96-1.7-11-5.08-15.12-3.61-4.38-8.34-6.56-14.19-6.56ZM1344.59,692.9c-2.23,2.74-5.01,4.11-8.35,4.11s-6.3-1.33-8.55-3.98c-2.17-2.54-3.26-5.56-3.26-9.06s1.09-6.44,3.26-8.98c2.26-2.68,5.08-4.02,8.47-4.02s6.08,1.37,8.34,4.11c2.12,2.57,3.18,5.54,3.18,8.89s-1.03,6.39-3.09,8.93Z"/><path class="cls-1" d="M1314.05,646.19s.01-.05.01-.08c0-.05-.01-.04-.01.08Z"/><path class="cls-1" d="M1399.18,682.06c0-5.42-1.74-10.02-5.21-13.81-3.56-3.9-7.99-5.84-13.3-5.84-5.7,0-10.52,2.25-14.44,6.73-3.72,4.32-5.59,9.39-5.59,15.2,0,6.52,1.95,11.74,5.84,15.65,3.9,3.91,9.12,5.87,15.67,5.87s11.81-2.2,15.97-6.61c.45-.48.68-.81.68-.97,0-.14-.49-1.17-1.48-3.07-.99-1.91-1.52-2.89-1.59-2.94s-.22-.08-.44-.08c-.45.37-.9.73-1.36,1.1-3.73,2.88-7.82,4.32-12.28,4.32-2.6,0-5.03-.83-7.28-2.5-2.37-1.75-3.74-3.87-4.11-6.35,16.26-1.21,25-2.05,26.22-2.5,1.81-.71,2.71-2.1,2.71-4.19ZM1386.64,680.33c-5.82.85-10.81,1.27-14.99,1.27-1.02,0-1.52-.3-1.52-.89,0-2.6,1.01-4.94,3.03-7.03s4.33-3.14,6.93-3.14c2.31,0,4.4.91,6.25,2.71,1.85,1.81,2.78,3.88,2.78,6.23,0,.34-.82.62-2.46.85Z"/><path class="cls-1" d="M1439.49,665.04c-.9,0-2.27.06-4.08.19-1.82.13-3.19.19-4.09.19-.45,0-.68.35-.68,1.06,0,.79.08,1.98.25,3.58.17,1.59.26,2.8.26,3.62,0,3.73-.11,6.3-.34,7.71-.17.99-1.54,3.58-4.11,7.77-2.57,4.19-4.09,6.29-4.57,6.29-.68,0-2.47-2.13-5.38-6.39-2.91-4.26-4.45-6.93-4.61-8-.23-1.7-.34-4.26-.34-7.71,0-.79.04-1.97.13-3.56.08-1.58.13-2.77.13-3.56,0-.59-.23-.89-.68-.89-.9,0-2.23-.06-4-.17-1.76-.11-3.1-.17-4-.17-.68,0-1.02.31-1.02.93,0,1.1-.02,2.73-.04,4.89-.03,2.16-.04,3.77-.04,4.85,0,4.38.2,7.14.59,8.3.51,1.47,2.92,4.95,7.24,10.46,4.09,5.2,6.14,8.17,6.14,8.93,0,.57-.52,1.67-1.55,3.3-1.03,1.64-1.8,2.61-2.31,2.92-1.5.9-3.82,1.36-6.99,1.36-1.5,0-2.25.31-2.25.93,0,.37.38,1.5,1.12,3.39.75,1.89,1.23,2.91,1.44,3.07.21.16.68.23,1.42.23,6.15,0,9.8-.51,10.92-1.52,1.24-1.16,5.18-6.64,11.8-16.45,6.62-9.81,10.11-15.35,10.48-16.62.28-.99.42-3.87.42-8.64,0-6.86-.42-10.29-1.27-10.29Z"/><path class="cls-1" d="M1464.27,662.84c-5.85,0-10.76,2.12-14.74,6.35-3.87,4.15-5.8,9.18-5.8,15.08s1.93,10.93,5.8,15.08c3.95,4.29,8.87,6.44,14.74,6.44s10.74-2.16,14.7-6.48c3.87-4.18,5.8-9.22,5.8-15.12s-1.95-10.87-5.84-14.99c-3.95-4.24-8.84-6.35-14.65-6.35ZM1472.66,693.07c-2.23,2.62-5.03,3.94-8.38,3.94s-6.13-1.31-8.39-3.94c-2.15-2.48-3.22-5.42-3.22-8.81s1.06-6.39,3.18-8.85c2.23-2.54,5.04-3.81,8.43-3.81s6.18,1.29,8.38,3.85c2.12,2.43,3.17,5.36,3.17,8.81s-1.06,6.33-3.17,8.81Z"/><path class="cls-1" d="M1527.88,687.02c0-.9.02-2.26.06-4.06.04-1.81.06-3.15.06-4.02,0-5.05-.72-8.71-2.16-10.97-1.95-3.08-5.58-4.61-10.88-4.61-2.77,0-5.63.9-8.6,2.71-2.4,1.72-4.33,3.16-5.8,4.32-.51-1.78-.83-3.54-.97-5.29-.06-.45-.17-.68-.34-.68-.14,0-1.73.25-4.77.74-3.03.49-4.65.76-4.85.78-.37.11-.55.31-.55.59,0,.11.04.29.13.55,1.27,5.08,1.91,10.63,1.91,16.64,0,2.26-.03,5.62-.1,10.08-.07,4.46-.11,7.81-.11,10.04,0,.65.3.97.89.97.9,0,2.26.01,4.06.04,1.81.03,3.16.04,4.07.04.54,0,.81-.35.81-1.06v-25.41c0-1.3,1.33-2.78,3.98-4.45,2.51-1.58,4.47-2.37,5.89-2.37,3.05,0,5.14.79,6.27,2.37.93,1.33,1.4,3.6,1.4,6.82,0,1.13.02,2.82.04,5.06.03,2.25.04,3.93.04,5.06,0,1.41-.04,3.53-.13,6.35s-.13,4.93-.13,6.31c0,.82.26,1.23.76,1.23.93,0,2.32.01,4.17.04,1.85.03,3.24.04,4.17.04.57,0,.85-.31.85-.93,0-1.89-.03-4.71-.08-8.47-.06-3.75-.08-6.58-.08-8.47Z"/><path class="cls-1" d="M1576.79,645.73c0-.59-.24-.89-.72-.89-1.02,0-2.56.09-4.62.28-2.06.18-3.61.28-4.66.28-.45,0-.68.34-.68,1.02,0,.96.04,2.39.13,4.28.09,1.89.13,3.3.13,4.24v13.72c0,.31-.11.51-.34.59-1.18-1.07-2.39-2.13-3.6-3.18-2.65-2.09-5.76-3.13-9.32-3.13-5.9,0-10.69,2.15-14.36,6.44-3.5,4.09-5.25,9.15-5.25,15.16s1.73,10.73,5.21,14.82c3.67,4.35,8.36,6.52,14.06,6.52,5.02,0,9.47-2.09,13.34-6.27.25-.28.47-.47.63-.55.14.03.25,1.02.32,2.99.07,1.96.3,2.94.7,2.94.42,0,1.04-.04,1.86-.13.82-.09,1.44-.13,1.86-.13-.09,0,.46.04,1.65.13.99.06,1.75.06,2.29,0,.79-.09,1.17-.27,1.14-.55l-.04-.55c-.48-5.73-.72-14.17-.72-25.33,0-3.61.16-9.06.49-16.33.32-7.27.49-12.73.49-16.37ZM1563.16,693.24c-2.2,2.68-5,4.02-8.38,4.02s-6.18-1.33-8.47-3.98c-2.23-2.51-3.35-5.46-3.35-8.85,0-3.56,1.07-6.61,3.22-9.15,2.26-2.71,5.13-4.07,8.6-4.07s6.07,1.37,8.3,4.11c2.09,2.57,3.13,5.55,3.13,8.94s-1.02,6.47-3.05,8.98Z"/><path class="cls-1" d="M1670.14,687.19c0-.93.03-2.37.08-4.32.06-1.95.09-3.39.09-4.32,0-4.89-.72-8.46-2.16-10.71-2.01-3.05-5.62-4.57-10.84-4.57-2.71,0-5.45.79-8.22,2.37-2.6,1.47-4.77,3.33-6.52,5.59-1.78-5.31-5.92-7.96-12.41-7.96-2.4,0-4.8.62-7.2,1.86-1.67.85-3.33,1.99-5,3.43l-2.12,1.86c-.23,0-.49-1-.78-2.99-.3-1.99-.62-2.99-.95-2.99l-.34.04c-1.86.34-3.26.65-4.19.93-2.01.31-3.53.52-4.57.63-.25.06-.38.27-.38.64,0,.23.04.52.13.89,1.1,5.14,1.65,10.29,1.65,15.46,0,2.29-.01,5.72-.04,10.31-.03,4.59-.04,8.03-.04,10.31,0,.76.28,1.14.85,1.14h7.88c.65,0,.97-.41.97-1.23,0-1.38-.02-3.47-.04-6.27-.03-2.79-.04-4.9-.04-6.31v-12.36c0-1.67,1.36-3.32,4.07-4.95,2.46-1.5,4.57-2.25,6.35-2.25,3.02,0,5.07.96,6.14,2.88.76,1.36,1.14,3.63,1.14,6.82v10.21c0,1.36-.04,3.4-.13,6.12s-.13,4.76-.13,6.12c0,.82.28,1.23.85,1.23.45,0,1.11-.03,1.99-.08s1.54-.08,1.99-.08c.51,0,1.25.04,2.22.13.97.09,1.72.13,2.22.13s.76-.38.76-1.14c0-1.38-.06-3.46-.17-6.23-.11-2.77-.17-4.84-.17-6.23,0-5.84.06-9.87.17-12.07.08-1.72,1.28-3.47,3.6-5.25,2.23-1.7,4.24-2.54,6.01-2.54,2.82,0,4.79.59,5.89,1.78.96,1.1,1.55,3.11,1.78,6.01.06.82.08,4.8.08,11.94,0,1.3-.05,3.24-.15,5.82-.1,2.58-.15,4.52-.15,5.82s.3,1.99.89,1.99c.48,0,1.2-.03,2.16-.08.96-.06,1.68-.08,2.16-.08.45,0,1.11.04,1.97.13.86.09,1.51.13,1.93.13.65,0,.97-.55.97-1.65,0-1.78-.04-4.45-.13-8.03-.08-3.57-.13-6.25-.13-8.03Z"/><path class="cls-1" d="M1688.77,664.83c-.54,0-1.34.07-2.39.21-1.06.14-1.86.21-2.39.21s-1.33-.07-2.39-.21-1.84-.21-2.35-.21c-.59,0-.89.24-.89.72,0,2.2.16,5.5.49,9.91s.49,7.71.49,9.91c0,1.98-.05,4.92-.15,8.83-.1,3.91-.15,6.84-.15,8.79,0,1.16.3,1.74.89,1.74h8.26c.51,0,.76-.3.76-.89,0-2.03-.04-5.1-.13-9.21-.08-4.11-.13-7.19-.13-9.26,0-2.2.13-5.5.4-9.89.27-4.39.4-7.67.4-9.85,0-.54-.24-.81-.72-.81Z"/><path class="cls-1" d="M1683.98,648.86c-1.58,0-2.94.48-4.06,1.44-1.22,1.02-1.82,2.3-1.82,3.85,0,3.47,1.96,5.21,5.89,5.21s5.8-1.73,5.8-5.21c0-1.55-.57-2.82-1.72-3.81s-2.51-1.48-4.09-1.48Z"/><path class="cls-1" d="M1735.02,687.02c0-.9.02-2.26.06-4.06.04-1.81.06-3.15.06-4.02,0-5.05-.72-8.71-2.16-10.97-1.95-3.08-5.57-4.61-10.88-4.61-2.77,0-5.63.9-8.6,2.71-2.4,1.72-4.33,3.16-5.8,4.32-.51-1.78-.83-3.54-.97-5.29-.06-.45-.17-.68-.34-.68-.14,0-1.73.25-4.77.74-3.03.49-4.65.76-4.85.78-.37.11-.55.31-.55.59,0,.11.04.29.13.55,1.27,5.08,1.91,10.63,1.91,16.64,0,2.26-.03,5.62-.11,10.08s-.11,7.81-.11,10.04c0,.65.3.97.89.97.91,0,2.26.01,4.07.04,1.81.03,3.16.04,4.07.04.53,0,.81-.35.81-1.06v-25.41c0-1.3,1.33-2.78,3.98-4.45,2.51-1.58,4.47-2.37,5.89-2.37,3.05,0,5.14.79,6.27,2.37.93,1.33,1.4,3.6,1.4,6.82,0,1.13.01,2.82.04,5.06.03,2.25.04,3.93.04,5.06,0,1.41-.04,3.53-.13,6.35-.08,2.82-.13,4.93-.13,6.31,0,.82.25,1.23.76,1.23.93,0,2.32.01,4.17.04,1.85.03,3.24.04,4.17.04.57,0,.85-.31.85-.93,0-1.89-.03-4.71-.09-8.47-.06-3.75-.08-6.58-.08-8.47Z"/><path class="cls-1" d="M1748.44,648.86c-1.58,0-2.94.48-4.06,1.44-1.21,1.02-1.82,2.3-1.82,3.85,0,3.47,1.96,5.21,5.89,5.21s5.8-1.73,5.8-5.21c0-1.55-.57-2.82-1.72-3.81s-2.51-1.48-4.09-1.48Z"/><path class="cls-1" d="M1753.23,664.83c-.54,0-1.33.07-2.39.21-1.06.14-1.86.21-2.4.21s-1.33-.07-2.39-.21c-1.06-.14-1.85-.21-2.35-.21-.59,0-.89.24-.89.72,0,2.2.16,5.5.49,9.91.32,4.4.49,7.71.49,9.91,0,1.98-.05,4.92-.15,8.83-.1,3.91-.15,6.84-.15,8.79,0,1.16.3,1.74.89,1.74h8.26c.51,0,.76-.3.76-.89,0-2.03-.04-5.1-.13-9.21-.09-4.11-.13-7.19-.13-9.26,0-2.2.13-5.5.4-9.89.27-4.39.4-7.67.4-9.85,0-.54-.24-.81-.72-.81Z"/><path class="cls-1" d="M1799.47,687.02c0-.9.02-2.26.06-4.06.04-1.81.06-3.15.06-4.02,0-5.05-.72-8.71-2.16-10.97-1.95-3.08-5.58-4.61-10.88-4.61-2.77,0-5.63.9-8.6,2.71-2.4,1.72-4.34,3.16-5.8,4.32-.51-1.78-.83-3.54-.97-5.29-.06-.45-.17-.68-.34-.68-.14,0-1.73.25-4.76.74-3.04.49-4.65.76-4.85.78-.37.11-.55.31-.55.59,0,.11.04.29.13.55,1.27,5.08,1.91,10.63,1.91,16.64,0,2.26-.04,5.62-.11,10.08-.07,4.46-.1,7.81-.1,10.04,0,.65.29.97.89.97.91,0,2.26.01,4.07.04,1.81.03,3.16.04,4.06.04.53,0,.81-.35.81-1.06v-25.41c0-1.3,1.33-2.78,3.98-4.45,2.51-1.58,4.48-2.37,5.89-2.37,3.05,0,5.14.79,6.27,2.37.93,1.33,1.4,3.6,1.4,6.82,0,1.13.01,2.82.04,5.06.03,2.25.04,3.93.04,5.06,0,1.41-.04,3.53-.13,6.35-.09,2.82-.13,4.93-.13,6.31,0,.82.25,1.23.76,1.23.93,0,2.32.01,4.17.04,1.85.03,3.24.04,4.17.04.56,0,.85-.31.85-.93,0-1.89-.03-4.71-.08-8.47-.06-3.75-.08-6.58-.08-8.47Z"/><path class="cls-1" d="M1844.41,664.23c-.25-.11-1.76-.43-4.53-.95-2.77-.52-4.29-.78-4.57-.78-.34,0-.51.85-.51,2.54,0,.4.03,1,.08,1.8.06.81.09,1.39.09,1.76,0,.51-.11.76-.34.76-.2,0-.52-.3-.97-.89-2.74-3.58-6.44-5.38-11.09-5.38-5.28,0-9.57,2.01-12.88,6.01-3.11,3.76-4.66,8.32-4.66,13.68s1.61,9.73,4.83,13.34c3.36,3.75,7.65,5.63,12.88,5.63,4.83,0,8.81-1.91,11.94-5.72.11,2.06.17,3.39.17,3.98,0,2.68-1.06,4.73-3.18,6.14-1.84,1.24-4.15,1.86-6.95,1.86-4.26,0-8.51-1.21-12.75-3.64-.23-.14-.41-.21-.55-.21-.31,0-.51.24-.59.72-.85,4.49-1.27,6.58-1.27,6.27,0,.28.31.62.93,1.02,3.95,2.43,9.13,3.64,15.54,3.64s11.46-1.69,14.49-5.08c2.88-3.19,4.32-8.14,4.32-14.87,0-3.39.03-8.48.09-15.27.06-6.79.08-11.88.08-15.27,0-.59-.2-.96-.59-1.1ZM1832.17,690.74c-1.92,2.43-4.37,3.64-7.37,3.64s-5.48-1.21-7.37-3.64c-1.75-2.23-2.63-4.88-2.63-7.96s.86-5.8,2.59-8c1.89-2.43,4.36-3.64,7.41-3.64s5.56,1.2,7.45,3.6c1.72,2.2,2.58,4.88,2.58,8.04s-.89,5.73-2.67,7.96Z"/></g></svg>